<svg width="100%" viewBox="0 0 680 520" role="img" xmlns="http://www.w3.org/2000/svg">
  <title>Trunk-Based Development diagram</title>
  <desc>Flowchart der viser hvordan kortlivede feature branches oprettes fra main og merges tilbage dagligt</desc>

  <defs>
    <marker id="arrow-green" viewBox="0 0 10 10" refX="8" refY="5" markerWidth="6" markerHeight="6" orient="auto-start-reverse">
      <path d="M2 1L8 5L2 9" fill="none" stroke="#1D9E75" stroke-width="1.5" stroke-linecap="round" stroke-linejoin="round"/>
    </marker>
    <marker id="arrow-purple" viewBox="0 0 10 10" refX="8" refY="5" markerWidth="6" markerHeight="6" orient="auto-start-reverse">
      <path d="M2 1L8 5L2 9" fill="none" stroke="#534AB7" stroke-width="1.5" stroke-linecap="round" stroke-linejoin="round"/>
    </marker>
  </defs>

  <!-- Baggrund -->
  <rect width="680" height="520" fill="#1C1B19" rx="12"/>

  <!-- Main branch line -->
  <line x1="40" y1="100" x2="640" y2="100" stroke="#C2C0B6" stroke-width="2.5" stroke-linecap="round"/>

  <!-- Main label -->
  <text x="40" y="70" font-family="system-ui, sans-serif" font-size="14" font-weight="500" fill="#FAF9F5">main</text>
  <text x="40" y="88" font-family="system-ui, sans-serif" font-size="12" fill="#C2C0B6">Enkelt kilde til sandhed</text>

  <!-- Commit dots on main -->
  <circle cx="100" cy="100" r="7" fill="#C2C0B6" opacity="0.5"/>
  <circle cx="260" cy="100" r="7" fill="#C2C0B6" opacity="0.5"/>
  <circle cx="440" cy="100" r="7" fill="#C2C0B6" opacity="0.5"/>
  <circle cx="600" cy="100" r="7" fill="#C2C0B6" opacity="0.3"/>

  <!-- Merge commit rings -->
  <circle cx="260" cy="100" r="12" fill="none" stroke="#1D9E75" stroke-width="2"/>
  <circle cx="440" cy="100" r="12" fill="none" stroke="#534AB7" stroke-width="2"/>

  <!-- Branch 1: hero-card -->
  <path d="M140 100 Q140 200 180 220" fill="none" stroke="#1D9E75" stroke-width="1.5"/>
  <line x1="180" y1="220" x2="230" y2="220" stroke="#1D9E75" stroke-width="1.5"/>
  <path d="M230 220 Q255 220 260 100" fill="none" stroke="#1D9E75" stroke-width="1.5" marker-end="url(#arrow-green)"/>

  <!-- Branch 1 node -->
  <rect x="148" y="198" width="164" height="44" rx="8" fill="#085041" stroke="#5DCAA5" stroke-width="0.5"/>
  <text x="230" y="216" text-anchor="middle" font-family="system-ui, sans-serif" font-size="14" font-weight="500" fill="#9FE1CB">hero-card</text>
  <text x="230" y="233" text-anchor="middle" font-family="system-ui, sans-serif" font-size="12" fill="#5DCAA5">1–2 dages arbejde</text>
  <circle cx="200" cy="220" r="5" fill="#1D9E75" opacity="0.7"/>

  <!-- Branch 2: logout-component -->
  <path d="M300 100 Q300 310 340 330" fill="none" stroke="#534AB7" stroke-width="1.5"/>
  <line x1="340" y1="330" x2="410" y2="330" stroke="#534AB7" stroke-width="1.5"/>
  <path d="M410 330 Q435 330 440 100" fill="none" stroke="#534AB7" stroke-width="1.5" marker-end="url(#arrow-purple)"/>

  <!-- Branch 2 node -->
  <rect x="300" y="308" width="180" height="44" rx="8" fill="#3C3489" stroke="#AFA9EC" stroke-width="0.5"/>
  <text x="390" y="326" text-anchor="middle" font-family="system-ui, sans-serif" font-size="14" font-weight="500" fill="#CECBF6">logout-component</text>
  <text x="390" y="343" text-anchor="middle" font-family="system-ui, sans-serif" font-size="12" fill="#AFA9EC">1–2 dages arbejde</text>
  <circle cx="370" cy="330" r="5" fill="#534AB7" opacity="0.7"/>

  <!-- Merge labels -->
  <text x="260" y="68" text-anchor="middle" font-family="system-ui, sans-serif" font-size="12" fill="#C2C0B6">Merge</text>
  <text x="440" y="68" text-anchor="middle" font-family="system-ui, sans-serif" font-size="12" fill="#C2C0B6">Merge</text>

  <!-- Legend box -->
  <rect x="40" y="420" width="600" height="80" rx="8" fill="none" stroke="#3A3835" stroke-width="0.5"/>
  <text x="60" y="444" font-family="system-ui, sans-serif" font-size="12" fill="#C2C0B6">Arbejdsgang:</text>

  <circle cx="70" cy="466" r="5" fill="#C2C0B6" opacity="0.5"/>
  <text x="84" y="471" font-family="system-ui, sans-serif" font-size="12" fill="#C2C0B6">1. Opret branch fra main</text>

  <circle cx="230" cy="466" r="5" fill="#1D9E75" opacity="0.8"/>
  <text x="244" y="471" font-family="system-ui, sans-serif" font-size="12" fill="#C2C0B6">2. Arbejd på feature</text>

  <circle cx="380" cy="466" r="5" fill="#534AB7" opacity="0.8"/>
  <text x="394" y="471" font-family="system-ui, sans-serif" font-size="12" fill="#C2C0B6">3. Merge til main dagligt</text>

  <circle cx="545" cy="466" r="5" fill="none" stroke="#C2C0B6" stroke-width="1.5"/>
  <text x="559" y="471" font-family="system-ui, sans-serif" font-size="12" fill="#C2C0B6">4. Slet branch</text>
</svg>
